<?xml version="1.0" encoding="utf-8"?>
<!-- Generator: Adobe Illustrator 26.5.0, SVG Export Plug-In . SVG Version: 6.00 Build 0)  -->
<svg version="1.1" id="Capa_1" xmlns="http://www.w3.org/2000/svg" xmlns:xlink="http://www.w3.org/1999/xlink" x="0px" y="0px"
	 viewBox="0 0 1080 1080" style="enable-background:new 0 0 1080 1080;" xml:space="preserve">
<style type="text/css">
	.st0{fill-rule:evenodd;clip-rule:evenodd;fill:#E14F90;}
	.st1{fill-rule:evenodd;clip-rule:evenodd;fill:#FFFFFF;}
	.st2{fill:#E14F90;}
</style>
<g>
	<path class="st0" d="M367.37,881.7c-45.15,0-81.92-35.78-81.92-79.38c-0.02-82.52,61-79.13,52.6-145.14
		c-13.4-42.33-64.8-49.48-118.36-49.47c-54.78,0.03-99.33-43.22-99.34-96.47c-0.03-52.94,44.49-96.27,99.31-96.27
		c5.6-0.01,11.2,0.32,16.47,1.23c-9.64-17.44-15.25-37.36-15.25-58.84c-0.05-68.49,57.55-124.25,127.93-124.27
		C583.91,233.04,542.68,881.66,367.37,881.7z"/>
	<path class="st0" d="M695.59,881.59c45.14-0.03,81.86-35.82,81.86-79.41c-0.03-82.53-61.06-79.08-52.66-145.1
		c13.36-42.34,64.74-49.53,118.62-49.55c54.49,0,98.99-43.3,98.99-96.55c0-52.94-44.57-96.2-99.04-96.2
		c-5.94,0.02-11.23,0.32-16.83,1.26c9.65-17.43,15.24-37.36,15.26-58.85c-0.03-68.5-57.66-124.22-128-124.21
		C478.96,233.05,520.56,881.66,695.59,881.59z"/>
</g>
</svg>
